# Blender 4.3.0
# www.blender.org
mtllib HourHand.mtl
o Hour
v -0.004452 -0.004452 -0.004452
v 0.004452 -0.004452 0.004452
v -0.004452 -0.004452 0.004452
v 0.004452 -0.004452 -0.004452
v -0.003066 0.074212 0.003066
v 0.003066 0.074212 -0.003066
v -0.003066 0.074212 -0.003066
v 0.003066 0.074212 0.003066
vn -0.0000 0.0157 0.9999
vn -0.0000 -1.0000 -0.0000
vn 0.9999 0.0157 -0.0000
vn -0.9999 0.0157 -0.0000
vn -0.0000 0.0157 -0.9999
vn -0.0000 1.0000 -0.0000
vt 0.826660 0.166016
vt 0.838379 0.013184
vt 0.838379 0.166016
vt 0.055908 0.011230
vt 0.055908 0.000977
vt 0.066284 0.000977
vt 0.821289 0.013672
vt 0.850098 0.166016
vt 0.855469 0.013672
vt 0.814453 0.166504
vt 0.803711 0.014648
vt 0.862305 0.166504
vt 0.873047 0.014648
vt 0.066284 0.011230
vt 0.074707 0.008301
vt 0.067627 0.000977
vt 0.074707 0.000977
vt 0.067627 0.008301
s 1
usemtl standardSurface1.003
f 5/1/1 2/2/1 8/3/1
f 1/4/2 4/5/2 2/6/2
f 2/2/1 5/1/1 3/7/1
f 6/8/3 2/2/3 4/9/3
f 3/7/4 7/10/4 1/11/4
f 7/12/5 4/9/5 1/13/5
f 1/4/2 2/6/2 3/14/2
f 2/2/3 6/8/3 8/3/3
f 7/10/4 3/7/4 5/1/4
f 4/9/5 7/12/5 6/8/5
f 6/15/6 5/16/6 8/17/6
f 5/16/6 6/15/6 7/18/6
