# Blender 4.3.0
# www.blender.org
mtllib MinuteHand.mtl
o Minute
v -0.004452 -0.004452 -0.004452
v 0.004452 -0.004452 0.004452
v -0.004452 -0.004452 0.004452
v 0.004452 -0.004452 -0.004452
v -0.002669 0.133495 0.002669
v 0.002669 0.133495 -0.002669
v -0.002669 0.133495 -0.002669
v 0.002669 0.133495 0.002669
vn -0.0000 0.0158 0.9999
vn -0.0000 -1.0000 -0.0000
vn 0.9999 0.0158 -0.0000
vn -0.0000 0.0158 -0.9999
vn -0.9999 0.0158 -0.0000
vn -0.0000 1.0000 -0.0000
vt 0.956055 0.253906
vt 0.965332 0.020020
vt 0.965332 0.253418
vt 0.044220 0.011230
vt 0.044220 0.000977
vt 0.054596 0.000977
vt 0.950195 0.020508
vt 0.974121 0.253906
vt 0.980469 0.020508
vt 0.995117 0.020996
vt 0.947266 0.253906
vt 0.935059 0.020996
vt 0.054596 0.011230
vt 0.983398 0.253906
vt 0.092529 0.000977
vt 0.092529 0.007324
vt 0.086304 0.000977
vt 0.086304 0.007324
s 1
usemtl standardSurface1
f 5/1/1 2/2/1 8/3/1
f 1/4/2 4/5/2 2/6/2
f 2/2/1 5/1/1 3/7/1
f 6/8/3 2/2/3 4/9/3
f 1/10/4 6/8/4 4/9/4
f 3/7/5 7/11/5 1/12/5
f 1/4/2 2/6/2 3/13/2
f 2/2/3 6/8/3 8/3/3
f 7/11/5 3/7/5 5/1/5
f 6/8/4 1/10/4 7/14/4
f 8/15/6 6/16/6 5/17/6
f 5/17/6 6/16/6 7/18/6
